<svg width="34" height="29" viewBox="0 0 34 29" fill="none" xmlns="http://www.w3.org/2000/svg">
<g clip-path="url(#clip0_3:74)">
<path d="M2.12404 8.20161V5.14898C2.12404 4.33937 2.44469 3.56292 3.01545 2.99044C3.58622 2.41796 4.36034 2.09634 5.16752 2.09634H29.5153C30.3225 2.09634 31.0966 2.41796 31.6674 2.99044C32.2382 3.56292 32.5588 4.33937 32.5588 5.14898V23.4648C32.5588 24.2744 32.2382 25.0508 31.6674 25.6233C31.0966 26.1958 30.3225 26.5174 29.5153 26.5174H20.3849M2.12404 20.5648C3.58627 20.8639 4.44477 21.9416 5.5 23C6.55523 24.0584 7.76061 25.0508 8.05882 26.5174L2.12404 20.5648ZM2.12404 14.3832C5.21437 14.7279 7.30133 16.2947 9.5 18.5C11.6987 20.7053 13.8782 23.4178 14.2219 26.5174L8.5 20L2.12404 14.3832Z" stroke="#8C99C5" stroke-width="3" stroke-linecap="round" stroke-linejoin="round"/>
<path d="M2.12404 26.5174H2.13787" stroke="#8C99C5" stroke-width="3" stroke-linecap="round" stroke-linejoin="round"/>
</g>
<defs>
<clipPath id="clip0_3:74">
<rect width="34" height="29" fill="white"/>
</clipPath>
</defs>
</svg>
