<svg width="56" height="56" viewBox="0 0 56 56" fill="none" xmlns="http://www.w3.org/2000/svg">
<path d="M21 27.4167C20.2265 27.4167 19.4846 27.724 18.9376 28.2709C18.3906 28.8179 18.0833 29.5598 18.0833 30.3333C18.0833 31.1069 18.3906 31.8487 18.9376 32.3957C19.4846 32.9427 20.2265 33.25 21 33.25C21.383 33.25 21.7623 33.1746 22.1162 33.028C22.47 32.8814 22.7916 32.6666 23.0624 32.3957C23.3332 32.1249 23.5481 31.8034 23.6946 31.4495C23.8412 31.0956 23.9167 30.7164 23.9167 30.3333C23.9167 29.9503 23.8412 29.571 23.6946 29.2172C23.5481 28.8633 23.3332 28.5418 23.0624 28.2709C22.7916 28.0001 22.47 27.7853 22.1162 27.6387C21.7623 27.4921 21.383 27.4167 21 27.4167ZM35 27.4167C34.2265 27.4167 33.4846 27.724 32.9376 28.2709C32.3906 28.8179 32.0833 29.5598 32.0833 30.3333C32.0833 31.1069 32.3906 31.8487 32.9376 32.3957C33.4846 32.9427 34.2265 33.25 35 33.25C35.7735 33.25 36.5154 32.9427 37.0624 32.3957C37.6094 31.8487 37.9167 31.1069 37.9167 30.3333C37.9167 29.5598 37.6094 28.8179 37.0624 28.2709C36.5154 27.724 35.7735 27.4167 35 27.4167ZM28 4.66667C24.9358 4.66667 21.9016 5.2702 19.0707 6.44281C16.2398 7.61542 13.6675 9.33414 11.5008 11.5008C7.12499 15.8767 4.66667 21.8116 4.66667 28C4.66667 34.1884 7.12499 40.1233 11.5008 44.4992C13.6675 46.6659 16.2398 48.3846 19.0707 49.5572C21.9016 50.7298 24.9358 51.3333 28 51.3333C34.1884 51.3333 40.1233 48.875 44.4992 44.4992C48.875 40.1233 51.3333 34.1884 51.3333 28C51.3333 24.9358 50.7298 21.9016 49.5572 19.0707C48.3846 16.2398 46.6659 13.6675 44.4992 11.5008C42.3325 9.33414 39.7602 7.61542 36.9293 6.44281C34.0984 5.2702 31.0642 4.66667 28 4.66667ZM28 46.6667C23.0493 46.6667 18.3014 44.7 14.8007 41.1993C11.3 37.6986 9.33333 32.9507 9.33333 28C9.26333 27.3329 9.26333 26.6604 9.33333 25.9933C14.8912 23.5615 19.2904 19.0703 21.6067 13.4633C23.7578 16.5132 26.6101 19.0017 29.9235 20.7194C33.2369 22.437 36.9145 23.3335 40.6467 23.3333C42.42 23.3333 44.17 23.1233 45.8967 22.7267C48.8133 32.6667 43.1667 43.0033 33.2733 45.8967C31.5 46.41 29.7733 46.6667 28 46.6667ZM0 4.66667C0 3.42899 0.491665 2.242 1.36683 1.36683C2.242 0.491665 3.42899 0 4.66667 0L14 0V4.66667H4.66667V14H0V4.66667ZM56 51.3333C56 52.571 55.5083 53.758 54.6332 54.6332C53.758 55.5083 52.571 56 51.3333 56H42V51.3333H51.3333V42H56V51.3333ZM4.66667 56C3.42899 56 2.242 55.5083 1.36683 54.6332C0.491665 53.758 0 52.571 0 51.3333V42H4.66667V51.3333H14V56H4.66667ZM51.3333 0C52.571 0 53.758 0.491665 54.6332 1.36683C55.5083 2.242 56 3.42899 56 4.66667V14H51.3333V4.66667H42V0H51.3333Z" fill="#F5F5F5"/>
</svg>
