<svg width="33" height="28" viewBox="0 0 33 28" fill="none" xmlns="http://www.w3.org/2000/svg">
<path d="M17 20.6667C19.9455 20.6667 22.3333 18.2789 22.3333 15.3333C22.3333 12.3878 19.9455 10 17 10C14.0545 10 11.6667 12.3878 11.6667 15.3333C11.6667 18.2789 14.0545 20.6667 17 20.6667Z" stroke="#8C99C5" stroke-width="3" stroke-linecap="round" stroke-linejoin="round"/>
<path d="M31.243 23.3333C31.243 24.0406 30.9629 24.7189 30.4642 25.219C29.9656 25.719 29.2893 26 28.584 26H4.65321C3.94801 26 3.27169 25.719 2.77303 25.219C2.27437 24.7189 1.99423 24.0406 1.99423 23.3333V8.66667C1.99423 7.95942 2.27437 7.28115 2.77303 6.78105C3.27169 6.28095 3.94801 6 4.65321 6H9.97118L12.6302 2H20.6071L23.2661 6H28.584C29.2893 6 29.9656 6.28095 30.4642 6.78105C30.9629 7.28115 31.243 7.95942 31.243 8.66667V23.3333Z" stroke="#8C99C5" stroke-width="3" stroke-linecap="round" stroke-linejoin="round"/>
</svg>
