<svg width="280" height="363" viewBox="0 0 280 363" fill="none" xmlns="http://www.w3.org/2000/svg">
<path d="M277.262 114.619C276.99 112.14 276.718 109.617 276.444 107.051C273.86 82.6744 261.124 61.8018 250.888 48.5813C237.986 31.9109 224.677 20.5617 209.007 12.8687C194.098 5.54718 176.891 1.51881 154.853 0.190299H154.737C129.808 -0.704753 111.064 1.53288 93.9548 7.42615C76.0779 13.5707 59.1396 24.1508 40.6633 40.7182L40.5068 40.8653C27.1484 53.9829 16.6815 67.7488 9.02508 92.2873C3.34471 110.488 0.140289 132.565 0.00174381 154.458C-0.0697635 165.351 2.05758 175.044 6.44634 183.7C6.02624 185.603 5.72808 187.531 5.55314 189.473C5.49887 189.956 5.45035 190.435 5.39161 190.896C3.10338 210.001 3.46985 223.566 11.9486 240.608C15.0011 246.735 19.6267 249.863 25.745 249.947L25.8114 250.637C27.0143 262.81 28.1539 274.311 32.6589 287.934C32.7061 288.075 32.7585 288.212 32.8153 288.346C33.155 289.121 41.3381 307.513 59.0943 325.979C69.5656 336.867 81.2086 345.51 93.7 351.672C108.985 359.199 125.806 363.077 142.84 362.999H144.296C162.2 362.78 178.821 358.685 193.69 350.822C205.574 344.556 216.341 335.865 225.694 325.04C241.564 306.691 247.835 288.597 248.094 287.836C248.145 287.693 248.187 287.544 248.22 287.389C251.348 274.08 254.315 261.495 254.03 248.74C265.025 246.503 268.184 238.523 269.708 234.684C269.855 234.312 269.99 233.977 270.119 233.681C270.184 233.535 270.24 233.386 270.29 233.234C277.065 212.348 277.985 204.082 275.773 184.091C275.631 182.82 275.434 181.45 275.148 180.062C277.086 177.182 278.342 173.896 278.817 170.454C281.302 151.528 279.429 134.422 277.262 114.619ZM261.422 230.114C261.284 230.446 261.137 230.813 260.976 231.206C259.715 234.388 258.146 238.366 252.01 239.548C246.955 240.537 244.471 243.545 244.627 248.499C244.988 260.134 242.294 271.659 239.153 284.991C238.451 286.928 232.314 303.124 218.385 319.151C209.799 329.023 199.958 336.918 189.133 342.61C175.64 349.708 160.529 353.405 144.19 353.606C128.207 353.884 112.388 350.365 98.0268 343.335C86.5365 337.692 75.7881 329.743 66.0854 319.696C50.3046 303.366 42.3979 286.664 41.5047 284.758C37.3886 272.227 36.3064 261.289 35.1623 249.72C34.9835 247.93 34.8092 246.14 34.6171 244.296C34.3604 241.714 32.0619 239.829 29.4826 240.085C29.2961 240.104 29.1103 240.134 28.9277 240.175C23.868 241.307 22.0139 239.727 20.3596 236.398C12.8967 221.411 12.6056 209.685 14.724 191.999C14.7827 191.502 14.8408 190.987 14.8944 190.467C15.3413 186.247 15.8196 183.177 17.71 182.099C25.2764 177.793 25.1462 171.778 25.0619 167.8C25.0619 167.397 25.0619 166.986 25.0619 166.574C25.0306 159.807 25.2675 146.596 25.2987 144.703C27.5334 125.79 39.7573 105.114 58.0357 89.3522C73.6154 75.9264 100.825 59.7394 141.964 58.9735C160.637 58.6244 177.213 61.0947 191.224 66.3091C203.372 70.8291 213.947 77.5509 222.652 86.2962C230.916 94.5933 242.893 109.384 251.582 141.951C252.135 145.352 252.028 148.566 251.948 151.671C251.693 160.219 251.43 169.058 264.462 177.593C265.052 178.371 266.036 181.303 266.46 185.116C268.502 203.781 267.756 210.557 261.422 230.114ZM261.307 151.953C261.409 148.488 261.525 144.563 260.78 140.165C260.757 140.021 260.726 139.883 260.689 139.744C256.248 123.028 248.176 98.6159 229.281 79.6587C208.721 59.0054 179.264 48.8779 141.772 49.5805C97.8347 50.3944 68.6456 67.7859 51.8905 82.2506C31.7791 99.5743 18.3715 122.614 15.9268 143.876C15.9268 144.023 15.9 144.171 15.8949 144.323C15.8949 144.932 15.614 159.27 15.6491 166.646C15.6491 167.093 15.6491 167.576 15.6491 168.034C15.7251 171.578 15.7429 172.419 13.0435 173.954C12.8654 174.057 12.6905 174.16 12.5213 174.272C10.3492 168.316 9.32068 161.799 9.36601 154.531C9.50009 133.851 12.633 112.19 17.9648 95.1035C25.0223 72.4811 34.6713 59.7483 46.984 47.6658C80.5618 17.5824 107.672 7.9651 154.327 9.5941C195.443 12.0823 220.436 24.6354 243.448 54.3473C252.936 66.6051 264.739 85.8717 267.091 108.051C267.364 110.628 267.638 113.164 267.912 115.658C270.017 134.857 271.832 151.461 269.486 169.246C269.486 169.384 269.441 169.514 269.419 169.649C260.954 164.035 261.073 159.717 261.307 151.953Z" fill="#F5F5F5" fill-opacity="0.7"/>
</svg>
