<svg width="28" height="28" viewBox="0 0 28 28" fill="none" xmlns="http://www.w3.org/2000/svg">
<path d="M1.5 5C1.5 3.067 3.067 1.5 5 1.5H23C24.933 1.5 26.5 3.067 26.5 5V23C26.5 24.933 24.933 26.5 23 26.5H5C3.067 26.5 1.5 24.933 1.5 23V5Z" stroke="#8C99C5" stroke-width="3"/>
<path d="M15.4471 8.6686C16.5577 8.6686 17.4663 7.89942 17.4663 6.9593C17.4663 6.01919 16.5577 5.25 15.4471 5.25C14.3365 5.25 13.4279 6.01919 13.4279 6.9593C13.4279 7.89942 14.3365 8.6686 15.4471 8.6686ZM11.7115 11.5744L8.88462 23.625H11.0048L12.8221 16.7878L14.9423 18.4971V23.625H16.9615V17.2151L14.8413 15.5058L15.4471 12.9419C16.7596 14.2238 18.7788 15.0785 21 15.0785V13.3692C19.0817 13.3692 17.4663 12.5145 16.6587 11.318L15.649 9.95058C15.2452 9.43779 14.6394 9.09593 13.9327 9.09593C13.6298 9.09593 13.4279 9.1814 13.125 9.1814L7.875 11.0616V15.0785H9.89423V12.1727L11.7115 11.5744Z" fill="#8C99C5"/>
</svg>
