<svg width="15" height="12" viewBox="0 0 15 12" fill="none" xmlns="http://www.w3.org/2000/svg">
<path fill-rule="evenodd" clip-rule="evenodd" d="M10 1.5C10 1.36739 9.94732 1.24021 9.85355 1.14645C9.75979 1.05268 9.63261 1 9.5 1H1.5C1.36739 1 1.24021 1.05268 1.14645 1.14645C1.05268 1.24021 1 1.36739 1 1.5V10.5C1 10.6326 1.05268 10.7598 1.14645 10.8536C1.24021 10.9473 1.36739 11 1.5 11H9.5C9.63261 11 9.75979 10.9473 9.85355 10.8536C9.94732 10.7598 10 10.6326 10 10.5V8.5C10 8.36739 10.0527 8.24021 10.1464 8.14645C10.2402 8.05268 10.3674 8 10.5 8C10.6326 8 10.7598 8.05268 10.8536 8.14645C10.9473 8.24021 11 8.36739 11 8.5V10.5C11 10.8978 10.842 11.2794 10.5607 11.5607C10.2794 11.842 9.89782 12 9.5 12H1.5C1.10218 12 0.720644 11.842 0.43934 11.5607C0.158035 11.2794 0 10.8978 0 10.5L0 1.5C0 1.10218 0.158035 0.720644 0.43934 0.43934C0.720644 0.158035 1.10218 0 1.5 0H9.5C9.89782 0 10.2794 0.158035 10.5607 0.43934C10.842 0.720644 11 1.10218 11 1.5V3.5C11 3.63261 10.9473 3.75979 10.8536 3.85355C10.7598 3.94732 10.6326 4 10.5 4C10.3674 4 10.2402 3.94732 10.1464 3.85355C10.0527 3.75979 10 3.63261 10 3.5V1.5Z" fill="#F5F5F5"/>
<path fill-rule="evenodd" clip-rule="evenodd" d="M4.14601 6.35399C4.09945 6.30755 4.0625 6.25237 4.0373 6.19162C4.01209 6.13088 3.99911 6.06576 3.99911 5.99999C3.99911 5.93422 4.01209 5.8691 4.0373 5.80836C4.0625 5.74761 4.09945 5.69244 4.14601 5.64599L7.14601 2.64599C7.2399 2.5521 7.36723 2.49936 7.50001 2.49936C7.63278 2.49936 7.76012 2.5521 7.85401 2.64599C7.9479 2.73988 8.00064 2.86722 8.00064 2.99999C8.00064 3.13277 7.9479 3.2601 7.85401 3.35399L5.70701 5.49999H14.5C14.6326 5.49999 14.7598 5.55267 14.8536 5.64644C14.9473 5.74021 15 5.86738 15 5.99999C15 6.1326 14.9473 6.25978 14.8536 6.35354C14.7598 6.44731 14.6326 6.49999 14.5 6.49999H5.70701L7.85401 8.64599C7.9005 8.69248 7.93737 8.74767 7.96253 8.80841C7.98769 8.86915 8.00064 8.93425 8.00064 8.99999C8.00064 9.06573 7.98769 9.13084 7.96253 9.19157C7.93737 9.25231 7.9005 9.3075 7.85401 9.35399C7.80752 9.40048 7.75233 9.43736 7.69159 9.46251C7.63085 9.48767 7.56575 9.50062 7.50001 9.50062C7.43426 9.50062 7.36916 9.48767 7.30843 9.46251C7.24769 9.43736 7.1925 9.40048 7.14601 9.35399L4.14601 6.35399Z" fill="#F5F5F5"/>
</svg>
