<svg width="16" height="12" viewBox="0 0 16 12" fill="none" xmlns="http://www.w3.org/2000/svg">
<path fill-rule="evenodd" clip-rule="evenodd" d="M5.5 1.5C5.5 1.36739 5.55268 1.24021 5.64645 1.14645C5.74021 1.05268 5.86739 1 6 1H14C14.1326 1 14.2598 1.05268 14.3536 1.14645C14.4473 1.24021 14.5 1.36739 14.5 1.5V10.5C14.5 10.6326 14.4473 10.7598 14.3536 10.8536C14.2598 10.9473 14.1326 11 14 11H6C5.86739 11 5.74021 10.9473 5.64645 10.8536C5.55268 10.7598 5.5 10.6326 5.5 10.5V8.5C5.5 8.36739 5.44732 8.24021 5.35355 8.14645C5.25979 8.05268 5.13261 8 5 8C4.86739 8 4.74021 8.05268 4.64645 8.14645C4.55268 8.24021 4.5 8.36739 4.5 8.5V10.5C4.5 10.8978 4.65804 11.2794 4.93934 11.5607C5.22064 11.842 5.60218 12 6 12H14C14.3978 12 14.7794 11.842 15.0607 11.5607C15.342 11.2794 15.5 10.8978 15.5 10.5V1.5C15.5 1.10218 15.342 0.720644 15.0607 0.43934C14.7794 0.158035 14.3978 0 14 0H6C5.60218 0 5.22064 0.158035 4.93934 0.43934C4.65804 0.720644 4.5 1.10218 4.5 1.5V3.5C4.5 3.63261 4.55268 3.75979 4.64645 3.85355C4.74021 3.94732 4.86739 4 5 4C5.13261 4 5.25979 3.94732 5.35355 3.85355C5.44732 3.75979 5.5 3.63261 5.5 3.5V1.5Z" fill="#EFEFEF"/>
<path fill-rule="evenodd" clip-rule="evenodd" d="M11.354 6.35399C11.4006 6.30755 11.4375 6.25237 11.4627 6.19162C11.4879 6.13088 11.5009 6.06576 11.5009 5.99999C11.5009 5.93422 11.4879 5.8691 11.4627 5.80836C11.4375 5.74761 11.4006 5.69244 11.354 5.64599L8.354 2.64599C8.30751 2.5995 8.25232 2.56263 8.19158 2.53747C8.13084 2.51231 8.06574 2.49936 8 2.49936C7.93426 2.49936 7.86916 2.51231 7.80842 2.53747C7.74768 2.56263 7.69249 2.5995 7.646 2.64599C7.59951 2.69248 7.56264 2.74767 7.53748 2.80841C7.51232 2.86915 7.49937 2.93425 7.49937 2.99999C7.49937 3.06573 7.51232 3.13084 7.53748 3.19157C7.56264 3.25231 7.59951 3.3075 7.646 3.35399L9.793 5.49999H1C0.867392 5.49999 0.740215 5.55267 0.646447 5.64644C0.552678 5.74021 0.5 5.86738 0.5 5.99999C0.5 6.1326 0.552678 6.25978 0.646447 6.35354C0.740215 6.44731 0.867392 6.49999 1 6.49999H9.793L7.646 8.64599C7.59951 8.69248 7.56264 8.74767 7.53748 8.80841C7.51232 8.86915 7.49937 8.93425 7.49937 8.99999C7.49937 9.06573 7.51232 9.13084 7.53748 9.19157C7.56264 9.25231 7.59951 9.3075 7.646 9.35399C7.69249 9.40048 7.74768 9.43736 7.80842 9.46251C7.86916 9.48767 7.93426 9.50062 8 9.50062C8.06574 9.50062 8.13084 9.48767 8.19158 9.46251C8.25232 9.43736 8.30751 9.40048 8.354 9.35399L11.354 6.35399Z" fill="#EFEFEF"/>
</svg>
