<svg width="1440" height="1024" viewBox="0 0 1440 1024" fill="none" xmlns="http://www.w3.org/2000/svg">
<g clip-path="url(#clip0)">
<path d="M-25 798H1472V-30H-25V798Z" fill="#98E0F9"/>
<path d="M0 513.02C0 513.02 375.744 421.849 1456 478.616V1023.92H0V513.02Z" fill="#83B958"/>
<g opacity="0.699997">
<g opacity="0.699997">
<path opacity="0.699997" d="M423.786 241.744H408.825C410.794 238.945 411.929 235.723 411.929 232.286C411.929 221.593 401.057 212.925 387.649 212.925H284.766C271.356 212.925 260.484 221.593 260.484 232.286C260.484 242.979 271.356 251.649 284.766 251.649H299.73C297.758 254.446 296.624 257.668 296.624 261.105H230.139C216.729 261.105 205.859 269.773 205.859 280.465C205.859 291.16 216.729 299.828 230.139 299.828H333.022C346.43 299.828 357.302 291.16 357.302 280.465H423.786C437.195 280.465 448.066 271.797 448.066 261.105C448.066 250.412 437.195 241.744 423.786 241.744Z" fill="white"/>
</g>
</g>
<path d="M1154.02 151.82C1154.02 189.411 1120.44 219.885 1079.01 219.885C1037.59 219.885 1004 189.411 1004 151.82C1004 114.228 1037.59 83.7567 1079.01 83.7567C1120.44 83.7567 1154.02 114.228 1154.02 151.82Z" fill="#FCEE21"/>
<g opacity="0.699997">
<g opacity="0.699997">
<path opacity="0.699997" d="M111.965 104.023H94.5686C96.8594 100.77 98.1774 97.0251 98.1774 93.0273C98.1774 80.5955 85.5392 70.5151 69.948 70.5151H-0.000976562V171.56H6.43136C22.0226 171.56 34.6629 161.481 34.6629 149.047H111.965C127.556 149.047 140.195 138.969 140.195 126.535C140.195 114.103 127.556 104.023 111.965 104.023Z" fill="white"/>
</g>
</g>
<g opacity="0.699997">
<g opacity="0.699997">
<path opacity="0.699997" d="M1054.31 182.767H1039.61C1041.55 180.02 1042.66 176.855 1042.66 173.48C1042.66 162.978 1031.99 154.463 1018.81 154.463H917.774C904.605 154.463 893.93 162.978 893.93 173.48C893.93 183.982 904.605 192.495 917.774 192.495H932.468C930.533 195.242 929.422 198.407 929.422 201.782H864.126C850.955 201.782 840.277 210.297 840.277 220.799C840.277 231.299 850.955 239.814 864.126 239.814H965.166C978.333 239.814 989.013 231.299 989.013 220.799H1054.31C1067.48 220.799 1078.16 212.284 1078.16 201.784C1078.16 191.282 1067.48 182.767 1054.31 182.767Z" fill="white"/>
</g>
</g>
<g opacity="0.699997">
<g opacity="0.699997">
<path opacity="0.699997" d="M755.742 74.8837H743.179C744.834 72.5356 745.787 69.8297 745.787 66.945C745.787 57.969 736.661 50.6925 725.405 50.6925H639.041C627.786 50.6925 618.661 57.969 618.661 66.945C618.661 75.921 627.786 83.1974 639.041 83.1974H651.6C649.947 85.5472 648.996 88.2513 648.996 91.1361H593.187C581.927 91.1361 572.802 98.4143 572.802 107.39C572.802 116.366 581.927 123.643 593.187 123.643H679.549C690.804 123.643 699.931 116.366 699.931 107.39H755.742C766.996 107.39 776.124 100.114 776.124 91.1378C776.124 82.1601 766.996 74.8837 755.742 74.8837Z" fill="white"/>
</g>
</g>
<g opacity="0.699997">
<g opacity="0.699997">
<path opacity="0.699997" d="M1352.98 63.5613H1341.27C1342.81 61.3732 1343.7 58.8531 1343.7 56.1644C1343.7 47.8008 1335.2 41.0215 1324.71 41.0215H1244.25C1233.76 41.0215 1225.26 47.8008 1225.26 56.1644C1225.26 64.528 1233.76 71.3073 1244.25 71.3073H1255.95C1254.41 73.4971 1253.52 76.0155 1253.52 78.7042H1201.52C1191.03 78.7042 1182.53 85.4835 1182.53 93.8471C1182.53 102.211 1191.03 108.99 1201.52 108.99H1281.99C1292.47 108.99 1300.98 102.211 1300.98 93.8471H1352.98C1363.46 93.8471 1371.97 87.0678 1371.97 78.7042C1371.97 70.3406 1363.46 63.5613 1352.98 63.5613Z" fill="white"/>
</g>
</g>
</g>
<defs>
<clipPath id="clip0">
<rect width="1440" height="1024"/>
</clipPath>
</defs>
</svg>