<svg width="40" height="40" viewBox="0 0 40 40" fill="none" xmlns="http://www.w3.org/2000/svg">
<rect opacity="0.1" width="40" height="40" rx="20" fill="#8C99C5"/>
<path fill-rule="evenodd" clip-rule="evenodd" d="M20 15C17.2 15 15 17.2 15 20C15 22.8 17.2 25 20 25C22.8 25 25 22.8 25 20C25 17.2 22.8 15 20 15ZM20 10C14.5 10 10 14.5 10 20C10 25.5 14.5 30 20 30C25.5 30 30 25.5 30 20C30 14.5 25.5 10 20 10ZM20 28C15.6 28 12 24.4 12 20C12 15.6 15.6 12 20 12C24.4 12 28 15.6 28 20C28 24.4 24.4 28 20 28Z" fill="#8C99C5"/>
</svg>
